<svg xmlns="http://www.w3.org/2000/svg" width="36.996" height="32.833" viewBox="0 0 36.996 32.833">
  <g id="basket-outline" transform="translate(-2.025 -3.15)">
    <path id="Path_37" data-name="Path 37" d="M5.056,13.5a1.68,1.68,0,0,0-1.681,1.665,1.473,1.473,0,0,0,.066.454L7.7,30.649a3.336,3.336,0,0,0,3.223,2.432H30.12a3.37,3.37,0,0,0,3.24-2.432l4.262-15.03.049-.454A1.68,1.68,0,0,0,35.99,13.5ZM20.995,26.7a3.468,3.468,0,1,1,3.486-3.468A3.468,3.468,0,0,1,20.995,26.7Z" transform="translate(0 1.553)" fill="none" stroke="#fff" stroke-linejoin="round" stroke-width="2.7"/>
    <path id="Path_38" data-name="Path 38" d="M11.25,15.053,19.165,4.5l7.915,10.553" transform="translate(1.359)" fill="none" stroke="#fff" stroke-linejoin="round" stroke-width="2.7"/>
  </g>
</svg>
