<svg xmlns="http://www.w3.org/2000/svg" width="117.158" height="117.188" viewBox="0 0 117.158 117.188">
  <g id="Icon_ionic-ios-timer" data-name="Icon ionic-ios-timer" transform="translate(-16.406 -16.406)">
    <path id="Path_5" data-name="Path 5" d="M75,133.594A58.595,58.595,0,0,1,34.336,32.813a4.7,4.7,0,1,1,6.533,6.768A49.174,49.174,0,1,0,79.688,26.045v18.34a4.717,4.717,0,0,1-9.434,0V21.123a4.714,4.714,0,0,1,4.717-4.717A58.594,58.594,0,0,1,75,133.594Z"/>
    <path id="Path_6" data-name="Path 6" d="M51.533,47.432l29.15,20.947A8.821,8.821,0,0,1,70.43,82.734a8.517,8.517,0,0,1-2.051-2.051L47.432,51.533a2.939,2.939,0,0,1,4.1-4.1Z"/>
  </g>
</svg>
