<svg xmlns="http://www.w3.org/2000/svg" width="112.599" height="105.29" viewBox="0 0 112.599 105.29">
  <g id="library-sharp" transform="translate(-1.125 -2.25)">
    <path id="Path_15" data-name="Path 15" d="M17.105,99.63H3.946a2.821,2.821,0,0,1-2.821-2.821V8.446A2.821,2.821,0,0,1,3.946,5.625H17.108a2.821,2.821,0,0,1,2.821,2.821V96.813a2.821,2.821,0,0,1-2.821,2.821Z" transform="translate(0 7.906)"/>
    <path id="Path_16" data-name="Path 16" d="M37.957,25.166V12.946a2.821,2.821,0,0,0-2.821-2.821H10.7a2.821,2.821,0,0,0-2.821,2.821v12.22Z" transform="translate(15.811 18.446)"/>
    <path id="Path_17" data-name="Path 17" d="M7.875,29.25V41.47A2.821,2.821,0,0,0,10.7,44.291H35.139A2.821,2.821,0,0,0,37.96,41.47V29.25Z" transform="translate(15.811 63.245)"/>
    <path id="Path_18" data-name="Path 18" d="M7.875,16.875H37.957V50.717H7.875Z" transform="translate(15.811 34.258)"/>
    <path id="Path_19" data-name="Path 19" d="M37.743,107.536H20.82A2.821,2.821,0,0,1,18,104.715V5.071A2.821,2.821,0,0,1,20.82,2.25H37.743a2.821,2.821,0,0,1,2.821,2.821v99.647a2.821,2.821,0,0,1-2.821,2.821Z" transform="translate(39.526)"/>
    <path id="Path_20" data-name="Path 20" d="M25.952,10.454,33,96.9a2.821,2.821,0,0,0,3.162,2.567L53.122,97.35a2.821,2.821,0,0,0,2.46-3.032L48.513,8.225a2.821,2.821,0,0,0-3.1-2.57L28.459,7.419a2.821,2.821,0,0,0-2.507,3.035Z" transform="translate(58.132 7.94)"/>
  </g>
</svg>
