<svg xmlns="http://www.w3.org/2000/svg" xmlns:xlink="http://www.w3.org/1999/xlink" width="183.062" height="137.927" viewBox="0 0 183.062 137.927">
  <defs>
    <filter id="Path_3">
      <feOffset input="SourceAlpha"/>
      <feGaussianBlur stdDeviation="15" result="blur"/>
      <feFlood flood-color="#fff" flood-opacity="0.251" result="color"/>
      <feComposite operator="out" in="SourceGraphic" in2="blur"/>
      <feComposite operator="in" in="color"/>
      <feComposite operator="in" in2="SourceGraphic"/>
    </filter>
  </defs>
  <g data-type="innerShadowGroup">
    <path id="Path_3-2" data-name="Path 3" d="M264.611,260.229c23.668-2.253,49.525-6.612,67.144,9.351,20.535,18.6,33.865,48.261,25.663,74.729-7.818,25.23-37.278,33.518-62.047,42.693-20.861,7.727-42.517,11.615-63.324,3.743-23.582-8.922-48.979-23.168-53.557-47.962-4.469-24.2,15.527-44.751,33.295-61.783,14.37-13.775,33.009-18.884,52.825-20.77" transform="translate(-177.368 -257.51)" fill="#707070"/>
    <g transform="matrix(1, 0, 0, 1, 0, 0)" filter="url(#Path_3)">
      <path id="Path_3-3" data-name="Path 3" d="M264.611,260.229c23.668-2.253,49.525-6.612,67.144,9.351,20.535,18.6,33.865,48.261,25.663,74.729-7.818,25.23-37.278,33.518-62.047,42.693-20.861,7.727-42.517,11.615-63.324,3.743-23.582-8.922-48.979-23.168-53.557-47.962-4.469-24.2,15.527-44.751,33.295-61.783,14.37-13.775,33.009-18.884,52.825-20.77" transform="translate(-177.37 -257.51)" fill="#fff"/>
    </g>
    <path id="Path_3-4" data-name="Path 3" d="M264.611,260.229c23.668-2.253,49.525-6.612,67.144,9.351,20.535,18.6,33.865,48.261,25.663,74.729-7.818,25.23-37.278,33.518-62.047,42.693-20.861,7.727-42.517,11.615-63.324,3.743-23.582-8.922-48.979-23.168-53.557-47.962-4.469-24.2,15.527-44.751,33.295-61.783,14.37-13.775,33.009-18.884,52.825-20.77" transform="translate(-177.368 -257.51)" fill="none" stroke="#fff" stroke-width="1"/>
  </g>
</svg>
