<svg xmlns="http://www.w3.org/2000/svg" xmlns:xlink="http://www.w3.org/1999/xlink" width="239.843" height="237.026" viewBox="0 0 239.843 237.026">
  <defs>
    <linearGradient id="linear-gradient" x1="0.5" x2="0.5" y2="1" gradientUnits="objectBoundingBox">
      <stop offset="0" stop-color="#e5fefe"/>
      <stop offset="1" stop-color="#cbdfe9"/>
    </linearGradient>
    <filter id="Path_4">
      <feOffset input="SourceAlpha"/>
      <feGaussianBlur stdDeviation="15" result="blur"/>
      <feFlood flood-color="#fff" flood-opacity="0.161" result="color"/>
      <feComposite operator="out" in="SourceGraphic" in2="blur"/>
      <feComposite operator="in" in="color"/>
      <feComposite operator="in" in2="SourceGraphic"/>
    </filter>
  </defs>
  <g data-type="innerShadowGroup">
    <path id="Path_4-2" data-name="Path 4" d="M274.663,185.811c19.653,3.418,35.193,17.48,47.772,32.963,10.5,12.918,11,29.829,16.112,45.668,6.417,19.874,27.98,40.188,17.429,58.21-10.566,18.046-38.97,8.713-59.351,13.392-16.523,3.794-31.16,13.015-48.022,11.261-21.621-2.249-46.8-4.512-59.145-22.406-12.555-18.2-4.345-42.529-.679-64.337,3.7-22.033,4.934-46.577,21.787-61.245,16.982-14.781,41.917-17.364,64.1-13.506" transform="matrix(0.809, -0.588, 0.588, 0.809, -255.402, 62.591)" fill="url(#linear-gradient)"/>
    <g transform="matrix(1, 0, 0, 1, 0, 0)" filter="url(#Path_4)">
      <path id="Path_4-3" data-name="Path 4" d="M274.663,185.811c19.653,3.418,35.193,17.48,47.772,32.963,10.5,12.918,11,29.829,16.112,45.668,6.417,19.874,27.98,40.188,17.429,58.21-10.566,18.046-38.97,8.713-59.351,13.392-16.523,3.794-31.16,13.015-48.022,11.261-21.621-2.249-46.8-4.512-59.145-22.406-12.555-18.2-4.345-42.529-.679-64.337,3.7-22.033,4.934-46.577,21.787-61.245,16.982-14.781,41.917-17.364,64.1-13.506" transform="matrix(0.81, -0.59, 0.59, 0.81, -255.4, 62.59)" fill="#fff"/>
    </g>
    <path id="Path_4-4" data-name="Path 4" d="M274.663,185.811c19.653,3.418,35.193,17.48,47.772,32.963,10.5,12.918,11,29.829,16.112,45.668,6.417,19.874,27.98,40.188,17.429,58.21-10.566,18.046-38.97,8.713-59.351,13.392-16.523,3.794-31.16,13.015-48.022,11.261-21.621-2.249-46.8-4.512-59.145-22.406-12.555-18.2-4.345-42.529-.679-64.337,3.7-22.033,4.934-46.577,21.787-61.245,16.982-14.781,41.917-17.364,64.1-13.506" transform="matrix(0.809, -0.588, 0.588, 0.809, -255.402, 62.591)" fill="none" stroke="#fff" stroke-width="1"/>
  </g>
</svg>
