<svg xmlns="http://www.w3.org/2000/svg" width="98.198" height="98.198" viewBox="0 0 98.198 98.198">
  <g id="percentage" transform="translate(-4.5 -4.5)">
    <path id="Path_12" data-name="Path 12" d="M24.958,45.416A20.458,20.458,0,1,1,45.416,24.958,20.458,20.458,0,0,1,24.958,45.416Zm0-32.733A12.275,12.275,0,1,0,37.233,24.958,12.275,12.275,0,0,0,24.958,12.683Z" transform="translate(0 0)"/>
    <path id="Path_13" data-name="Path 13" d="M4.5,96.911,96.908,4.5l5.79,5.79L10.286,102.7Z" transform="translate(0 0)"/>
    <path id="Path_14" data-name="Path 14" d="M40.708,61.166A20.458,20.458,0,1,1,61.166,40.708,20.458,20.458,0,0,1,40.708,61.166Zm0-32.733A12.275,12.275,0,1,0,52.983,40.708,12.275,12.275,0,0,0,40.708,28.433Z" transform="translate(41.532 41.532)"/>
  </g>
</svg>
