<svg xmlns="http://www.w3.org/2000/svg" width="16.697" height="13.493" viewBox="0 0 16.697 13.493">
  <path id="add-shopping-cart" d="M4.05,7.875a.675.675,0,1,0,0,1.349h1.5l1.77,7.084A1.339,1.339,0,0,0,8.625,17.32h8.413a1.328,1.328,0,0,0,1.286-.992L20.072,9.9H18.659l-1.623,6.072H8.623L6.854,8.887A1.338,1.338,0,0,0,5.547,7.875ZM16.193,17.32a2.024,2.024,0,1,0,2.024,2.024A2.034,2.034,0,0,0,16.193,17.32Zm-6.072,0a2.024,2.024,0,1,0,2.024,2.024A2.034,2.034,0,0,0,10.121,17.32Zm2.024-9.445V9.9H10.121v1.349h2.024v2.024h1.349V11.248h2.024V9.9H13.494V7.875ZM10.121,18.669a.675.675,0,1,1-.675.675A.665.665,0,0,1,10.121,18.669Zm6.072,0a.675.675,0,1,1-.675.675A.665.665,0,0,1,16.193,18.669Z" transform="translate(-3.375 -7.875)" fill="#fff"/>
</svg>
