<svg xmlns="http://www.w3.org/2000/svg" width="455.102" height="47.1" viewBox="0 0 455.102 47.1">
  <g id="BoardGameBar" transform="translate(-54.38 -118.6)">
    <g id="Group_3" data-name="Group 3" transform="translate(101.795 118.6)">
      <path id="Path_41" data-name="Path 41" d="M279.192,157.2a9.778,9.778,0,0,1-2.2,6.62,12.851,12.851,0,0,1-5.887,3.755,26.045,26.045,0,0,1-8.146,1.208H240.75V123.59h26.223a9.119,9.119,0,0,1,5.506,1.687,11.011,11.011,0,0,1,3.564,4.361,13.014,13.014,0,0,1,1.242,5.539,12.329,12.329,0,0,1-1.623,6.047,10.144,10.144,0,0,1-4.869,4.391,11.072,11.072,0,0,1,8.4,11.581Zm-26.032-23.04v6.938h8.464a4.489,4.489,0,0,0,1.59-.288,2.629,2.629,0,0,0,1.272-1.051A3.9,3.9,0,0,0,265,137.59a4.077,4.077,0,0,0-.415-2A2.664,2.664,0,0,0,263.5,134.5a3.2,3.2,0,0,0-1.5-.351H253.16Zm13.431,20.493a4.552,4.552,0,0,0-.415-2,3.583,3.583,0,0,0-1.114-1.369,2.745,2.745,0,0,0-1.654-.509H253.16v7.574h9.8a3.828,3.828,0,0,0,1.847-.445,3.268,3.268,0,0,0,1.305-1.272A3.911,3.911,0,0,0,266.591,154.649Z" transform="translate(-240.75 -122.32)" fill="#fff"/>
      <path id="Path_42" data-name="Path 42" d="M369.191,203.541a21.129,21.129,0,0,1-7.892-1.376,16.051,16.051,0,0,1-9.261-9.266,17.821,17.821,0,0,1-1.178-6.449,18.075,18.075,0,0,1,1.178-6.48,15.747,15.747,0,0,1,3.5-5.478,16.514,16.514,0,0,1,5.76-3.755,23.409,23.409,0,0,1,15.817,0,16.6,16.6,0,0,1,5.729,3.755,15.785,15.785,0,0,1,3.5,5.478,18.12,18.12,0,0,1,1.178,6.48,17.821,17.821,0,0,1-1.178,6.449,16.113,16.113,0,0,1-9.23,9.266A21.042,21.042,0,0,1,369.191,203.541Zm-5.92-17.089a8.314,8.314,0,0,0,.763,3.7,5.618,5.618,0,0,0,2.1,2.384,6.075,6.075,0,0,0,6.111,0,5.637,5.637,0,0,0,2.1-2.384,9.334,9.334,0,0,0,0-7.393,5.5,5.5,0,0,0-5.157-3.208,5.7,5.7,0,0,0-3.056.824,5.637,5.637,0,0,0-2.1,2.384A8.322,8.322,0,0,0,363.27,186.452Z" transform="translate(-322.846 -156.446)" fill="#fff"/>
      <path id="Path_43" data-name="Path 43" d="M469.35,192.977a9.682,9.682,0,0,1,1.844-5.849,12.247,12.247,0,0,1,5.124-3.971,18.44,18.44,0,0,1,7.477-1.44,20.92,20.92,0,0,1,3.725.318,11.412,11.412,0,0,1,3.022.954v-1.018a4.04,4.04,0,0,0-1.369-3.358,7.1,7.1,0,0,0-4.424-1.1,14.764,14.764,0,0,0-5.251.924,25.8,25.8,0,0,0-5.124,2.7l-3.5-7.51a26.332,26.332,0,0,1,7.1-3.213,29.333,29.333,0,0,1,7.989-1.051q7.957,0,12.316,3.511t4.361,10.406v6.337a3.907,3.907,0,0,0,.509,2.328,2.449,2.449,0,0,0,1.781.776v10.184q-1.465.317-2.768.478a19.794,19.794,0,0,1-2.323.158,8.587,8.587,0,0,1-4.933-1.178,5.481,5.481,0,0,1-2.2-3.468l-.254-1.208a15.432,15.432,0,0,1-5.154,4.361,13.522,13.522,0,0,1-6.238,1.5,12.906,12.906,0,0,1-5.984-1.376,10.584,10.584,0,0,1-4.2-3.783A9.929,9.929,0,0,1,469.35,192.977Zm19.6.712a5.108,5.108,0,0,0,1.145-1.053,1.9,1.9,0,0,0,.445-1.173v-2.348a15.431,15.431,0,0,0-2.323-.6,13.008,13.008,0,0,0-2.323-.242,6.321,6.321,0,0,0-3.659,1.023,3.042,3.042,0,0,0-1.5,2.587,2.515,2.515,0,0,0,.509,1.534,3.394,3.394,0,0,0,1.4,1.084,5.038,5.038,0,0,0,2.038.392,8.329,8.329,0,0,0,2.259-.331A7.134,7.134,0,0,0,488.953,193.689Z" transform="translate(-411.191 -156.453)" fill="#fff"/>
      <path id="Path_44" data-name="Path 44" d="M616.068,166.477a17.378,17.378,0,0,1,7.18,1.285l-6.956,9.82a24.724,24.724,0,0,0-6.365.763,7.757,7.757,0,0,0-4.264,2.547v19.857H593.57V167.716h11.075v5.92a14.277,14.277,0,0,1,4.88-5.04A10.9,10.9,0,0,1,616.068,166.477Z" transform="translate(-503.807 -154.291)" fill="#fff"/>
      <path id="Path_45" data-name="Path 45" d="M637.89,148.545a19.659,19.659,0,0,1,1.878-8.731,15.112,15.112,0,0,1,5.188-6.07,13.272,13.272,0,0,1,7.574-2.224,12.277,12.277,0,0,1,5.984,1.5,10.024,10.024,0,0,1,4.137,4.106V118.6h12.092v33.1a4.089,4.089,0,0,0,.509,2.386,2.438,2.438,0,0,0,1.781.8v10.184a26.544,26.544,0,0,1-5.091.636,8.862,8.862,0,0,1-4.836-1.145,5.282,5.282,0,0,1-2.292-3.5l-.254-1.208a10.426,10.426,0,0,1-4.646,4.455,14.273,14.273,0,0,1-6.238,1.4,15.787,15.787,0,0,1-6.332-1.252,14.836,14.836,0,0,1-5.027-3.536,15.716,15.716,0,0,1-3.277-5.444A20.174,20.174,0,0,1,637.89,148.545Zm24.823,3.669v-5.745a8.157,8.157,0,0,0-1.56-2.475,7.784,7.784,0,0,0-2.2-1.682,5.536,5.536,0,0,0-4.933-.061,5.981,5.981,0,0,0-1.941,1.529,6.991,6.991,0,0,0-1.272,2.262,8.309,8.309,0,0,0-.445,2.748,7.5,7.5,0,0,0,.478,2.75,6.01,6.01,0,0,0,1.369,2.109,6.318,6.318,0,0,0,2.1,1.376,7.077,7.077,0,0,0,2.674.488,6.117,6.117,0,0,0,1.654-.214,6.5,6.5,0,0,0,1.463-.611,6.946,6.946,0,0,0,1.369-1.038A10.837,10.837,0,0,0,662.713,152.213Z" transform="translate(-536.852 -118.6)" fill="#fff"/>
      <path id="Path_46" data-name="Path 46" d="M825.208,168.173a22.7,22.7,0,0,1-8.37-1.56,20.553,20.553,0,0,1-7.032-4.582,21.627,21.627,0,0,1-4.806-7.32,25.875,25.875,0,0,1-1.75-9.833,21.818,21.818,0,0,1,1.781-8.846,22.641,22.641,0,0,1,12.283-11.965,23.819,23.819,0,0,1,9.1-1.717,23.209,23.209,0,0,1,11.075,2.641,17.237,17.237,0,0,1,7.383,7.223l-9.228,7.065a10.429,10.429,0,0,0-4.01-4.3,10.747,10.747,0,0,0-5.666-1.623,9.254,9.254,0,0,0-4.073.89,9.845,9.845,0,0,0-3.213,2.483,11.118,11.118,0,0,0-2.1,3.788,15.1,15.1,0,0,0-.733,4.806,14.462,14.462,0,0,0,.763,4.836,11.244,11.244,0,0,0,2.132,3.725,9.5,9.5,0,0,0,3.277,2.419,10.28,10.28,0,0,0,4.264.86,11.79,11.79,0,0,0,5.729-1.5,16.821,16.821,0,0,0,4.964-4.233V163.53A16.927,16.927,0,0,1,825.208,168.173Zm11.138-15.466H828.01V143.8h18.585v24.057H836.347Z" transform="translate(-660.142 -121.396)" fill="#fff"/>
      <path id="Path_47" data-name="Path 47" d="M966.86,192.977a9.683,9.683,0,0,1,1.844-5.849,12.248,12.248,0,0,1,5.124-3.971,18.44,18.44,0,0,1,7.477-1.44,20.92,20.92,0,0,1,3.725.318,11.412,11.412,0,0,1,3.022.954v-1.018a4.04,4.04,0,0,0-1.369-3.358,7.1,7.1,0,0,0-4.424-1.1,14.765,14.765,0,0,0-5.251.924,25.8,25.8,0,0,0-5.124,2.7l-3.5-7.51a26.333,26.333,0,0,1,7.1-3.213,29.334,29.334,0,0,1,7.989-1.051q7.957,0,12.316,3.511t4.361,10.406v6.337a3.927,3.927,0,0,0,.509,2.328,2.449,2.449,0,0,0,1.781.776v10.184q-1.466.317-2.768.478a19.794,19.794,0,0,1-2.323.158,8.587,8.587,0,0,1-4.933-1.178,5.482,5.482,0,0,1-2.2-3.468l-.254-1.208a15.433,15.433,0,0,1-5.154,4.361,13.523,13.523,0,0,1-6.238,1.5,12.906,12.906,0,0,1-5.984-1.376,10.583,10.583,0,0,1-4.2-3.783A9.929,9.929,0,0,1,966.86,192.977Zm19.6.712a5.106,5.106,0,0,0,1.145-1.053,1.9,1.9,0,0,0,.445-1.173v-2.348a15.43,15.43,0,0,0-2.323-.6,13.008,13.008,0,0,0-2.323-.242,6.321,6.321,0,0,0-3.659,1.023,3.042,3.042,0,0,0-1.5,2.587,2.515,2.515,0,0,0,.509,1.534,3.394,3.394,0,0,0,1.4,1.084,5.038,5.038,0,0,0,2.038.392,8.329,8.329,0,0,0,2.259-.331A7.167,7.167,0,0,0,986.463,193.689Z" transform="translate(-782.127 -156.453)" fill="#fff"/>
      <path id="Path_48" data-name="Path 48" d="M1160.674,202.9h-12.092V184.523a5.134,5.134,0,0,0-.987-3.508,3.106,3.106,0,0,0-2.386-1.086,5.1,5.1,0,0,0-3.056,1.305,7.536,7.536,0,0,0-2.419,3.353v18.32h-12.092V184.526a5.134,5.134,0,0,0-.987-3.508,3.106,3.106,0,0,0-2.386-1.086,5.19,5.19,0,0,0-3.056,1.264,7.309,7.309,0,0,0-2.419,3.251v18.46H1106.7V169.871h10.884v5a11.313,11.313,0,0,1,4.9-4.1,17.813,17.813,0,0,1,7.383-1.409q4.137,0,6.238,1.753a8.554,8.554,0,0,1,2.8,3.943,11.965,11.965,0,0,1,4.9-4.193,15.944,15.944,0,0,1,7-1.5,10.19,10.19,0,0,1,5.282,1.188,7.8,7.8,0,0,1,2.959,3.066,12.614,12.614,0,0,1,1.305,3.91,24.373,24.373,0,0,1,.318,3.725V202.9Z" transform="translate(-886.39 -156.446)" fill="#fff"/>
      <path id="Path_49" data-name="Path 49" d="M1337.188,203.548a21.326,21.326,0,0,1-7.828-1.348,16.59,16.59,0,0,1-5.76-3.669,15.713,15.713,0,0,1-3.531-5.327,16.81,16.81,0,0,1-1.209-6.332,18.33,18.33,0,0,1,2.1-8.719,16.027,16.027,0,0,1,6.175-6.376,22.311,22.311,0,0,1,20.114-.023,16.051,16.051,0,0,1,6.175,6.269,17.528,17.528,0,0,1,2.1,8.462,18.815,18.815,0,0,1-.1,1.913c-.064.649-.137,1.221-.224,1.722h-23.485a4.821,4.821,0,0,0,.987,2.75,4.961,4.961,0,0,0,2.165,1.542,7.7,7.7,0,0,0,2.7.483,8.086,8.086,0,0,0,3.725-.89,4.48,4.48,0,0,0,2.323-2.483l10.248,2.928a14.936,14.936,0,0,1-3.722,4.709,18.01,18.01,0,0,1-5.633,3.213A21.449,21.449,0,0,1,1337.188,203.548Zm-5.729-20.684h11.075a5.878,5.878,0,0,0-.923-2.631,5.033,5.033,0,0,0-1.908-1.674,6.415,6.415,0,0,0-5.409,0,5,5,0,0,0-1.908,1.674A5.836,5.836,0,0,0,1331.459,182.864Z" transform="translate(-1044.573 -156.453)" fill="#fff"/>
      <path id="Path_50" data-name="Path 50" d="M1501.392,157.2a9.778,9.778,0,0,1-2.2,6.62,12.85,12.85,0,0,1-5.887,3.755,26.046,26.046,0,0,1-8.146,1.208H1462.95V123.59h26.222a9.118,9.118,0,0,1,5.505,1.687,11.011,11.011,0,0,1,3.564,4.361,13.015,13.015,0,0,1,1.242,5.539,12.329,12.329,0,0,1-1.623,6.047,10.143,10.143,0,0,1-4.87,4.391,11.072,11.072,0,0,1,8.4,11.581Zm-26.032-23.04v6.938h8.464a4.489,4.489,0,0,0,1.59-.288,2.628,2.628,0,0,0,1.272-1.051,3.9,3.9,0,0,0,.509-2.165,4.077,4.077,0,0,0-.415-2,2.663,2.663,0,0,0-1.081-1.081,3.2,3.2,0,0,0-1.5-.351h-8.843Zm13.428,20.493a4.553,4.553,0,0,0-.415-2,3.585,3.585,0,0,0-1.114-1.369,2.745,2.745,0,0,0-1.654-.509h-10.248v7.574h9.8A3.811,3.811,0,0,0,1487,157.9a3.266,3.266,0,0,0,1.305-1.272A3.859,3.859,0,0,0,1488.788,154.649Z" transform="translate(-1152.004 -122.32)" fill="#fff"/>
      <path id="Path_51" data-name="Path 51" d="M1614.05,192.977a9.683,9.683,0,0,1,1.845-5.849,12.263,12.263,0,0,1,5.124-3.971,18.443,18.443,0,0,1,7.48-1.44,20.873,20.873,0,0,1,3.722.318,11.413,11.413,0,0,1,3.022.954v-1.018a4.04,4.04,0,0,0-1.369-3.358,7.1,7.1,0,0,0-4.424-1.1,14.764,14.764,0,0,0-5.251.924,25.791,25.791,0,0,0-5.124,2.7l-3.5-7.51a26.331,26.331,0,0,1,7.1-3.213,29.334,29.334,0,0,1,7.989-1.051q7.957,0,12.316,3.511t4.361,10.406v6.337a3.927,3.927,0,0,0,.509,2.328,2.449,2.449,0,0,0,1.781.776v10.184q-1.465.317-2.768.478a19.8,19.8,0,0,1-2.323.158,8.587,8.587,0,0,1-4.933-1.178,5.48,5.48,0,0,1-2.2-3.468l-.255-1.208a15.432,15.432,0,0,1-5.154,4.361,13.522,13.522,0,0,1-6.238,1.5,12.906,12.906,0,0,1-5.984-1.376,10.583,10.583,0,0,1-4.2-3.783A9.929,9.929,0,0,1,1614.05,192.977Zm19.6.712a5.111,5.111,0,0,0,1.145-1.053,1.886,1.886,0,0,0,.445-1.173v-2.348a15.435,15.435,0,0,0-2.323-.6,13.011,13.011,0,0,0-2.323-.242,6.32,6.32,0,0,0-3.658,1.023,3.042,3.042,0,0,0-1.5,2.587,2.532,2.532,0,0,0,.509,1.534,3.4,3.4,0,0,0,1.4,1.084,5.034,5.034,0,0,0,2.035.392,8.329,8.329,0,0,0,2.259-.331A7.152,7.152,0,0,0,1633.653,193.689Z" transform="translate(-1264.662 -156.453)" fill="#fff"/>
      <path id="Path_52" data-name="Path 52" d="M1776.612,178.067a24.725,24.725,0,0,0-6.365.763,7.756,7.756,0,0,0-4.264,2.547v19.857H1753.89V168.2h11.074v5.92a14.009,14.009,0,0,1,4.455-5.188,9.918,9.918,0,0,1,5.663-1.814h.987a2.326,2.326,0,0,1,.542.064Z" transform="translate(-1368.925 -154.776)" fill="#fff"/>
    </g>
    <path id="Path_53" data-name="Path 53" d="M129.951,261.78l-2.521,10.032H134.3l2.468-10.032Z" transform="translate(-54.465 -106.753)" fill="#fff"/>
    <path id="Path_54" data-name="Path 54" d="M95.623,141.793V135.81H87.858l2.989-12.22H83.976l-2.928,12.22H75.227l-1.471,5.984h5.762l-2.035,8.719H69.846l1.473-6.114h0v0l.626-2.6h.01l1.46-5.984H73.41l3.056-12.22H69.591L66.6,135.81h-9.23v5.984h7.767l-2.1,8.719H54.38v6.365h7.129l-2.928,11.9h6.874l2.862-11.9H92.631v-6.365H84.294l2.035-8.719Z" transform="translate(0 -3.72)" fill="#fff"/>
    <rect id="Rectangle_17" data-name="Rectangle 17" width="80.7" height="4.75" transform="translate(142.514 122.348)" fill="#fff"/>
    <rect id="Rectangle_18" data-name="Rectangle 18" width="114.283" height="4.75" transform="translate(292.619 122.348)" fill="#fff"/>
  </g>
</svg>
