<svg xmlns="http://www.w3.org/2000/svg" width="238.88" height="24.722" viewBox="0 0 238.88 24.722">
  <g id="BoardGameBar" transform="translate(-54.38 -118.6)">
    <g id="Group_2" data-name="Group 2" transform="translate(79.268 118.6)">
      <path id="Path_21" data-name="Path 21" d="M260.928,141.229a5.132,5.132,0,0,1-1.152,3.475,6.746,6.746,0,0,1-3.09,1.971,13.672,13.672,0,0,1-4.276.634H240.75V123.59h13.764a4.786,4.786,0,0,1,2.89.885,5.779,5.779,0,0,1,1.871,2.289,6.831,6.831,0,0,1,.652,2.907,6.471,6.471,0,0,1-.852,3.174,5.324,5.324,0,0,1-2.556,2.3,5.812,5.812,0,0,1,4.41,6.079Zm-13.664-12.093v3.642h4.443a2.356,2.356,0,0,0,.835-.151,1.38,1.38,0,0,0,.668-.552,2.046,2.046,0,0,0,.267-1.136,2.14,2.14,0,0,0-.218-1.052,1.4,1.4,0,0,0-.568-.568,1.677,1.677,0,0,0-.785-.184h-4.642Zm7.05,10.757a2.389,2.389,0,0,0-.218-1.052,1.881,1.881,0,0,0-.585-.718,1.441,1.441,0,0,0-.868-.267h-5.379v3.976h5.145a2.009,2.009,0,0,0,.97-.234,1.716,1.716,0,0,0,.685-.668A2.053,2.053,0,0,0,254.314,139.893Z" transform="translate(-240.75 -122.924)" fill="#fff"/>
      <path id="Path_22" data-name="Path 22" d="M360.482,187.3a11.09,11.09,0,0,1-4.142-.722,8.425,8.425,0,0,1-4.861-4.864,9.355,9.355,0,0,1-.618-3.385,9.488,9.488,0,0,1,.618-3.4,8.267,8.267,0,0,1,1.838-2.875,8.668,8.668,0,0,1,3.023-1.971,12.287,12.287,0,0,1,8.3,0,8.711,8.711,0,0,1,3.007,1.971,8.285,8.285,0,0,1,1.837,2.875,9.511,9.511,0,0,1,.618,3.4,9.354,9.354,0,0,1-.618,3.385,8.457,8.457,0,0,1-4.845,4.864A11.045,11.045,0,0,1,360.482,187.3Zm-3.107-8.97a4.364,4.364,0,0,0,.4,1.94,2.949,2.949,0,0,0,1.1,1.251,3.189,3.189,0,0,0,3.208,0,2.959,2.959,0,0,0,1.1-1.251,4.9,4.9,0,0,0,0-3.881,2.887,2.887,0,0,0-2.707-1.684,2.993,2.993,0,0,0-1.6.433,2.959,2.959,0,0,0-1.1,1.251A4.368,4.368,0,0,0,357.374,178.331Z" transform="translate(-336.156 -162.581)" fill="#fff"/>
      <path id="Path_23" data-name="Path 23" d="M469.35,181.761a5.082,5.082,0,0,1,.968-3.07,6.428,6.428,0,0,1,2.69-2.085,9.679,9.679,0,0,1,3.925-.756,10.981,10.981,0,0,1,1.955.167,5.99,5.99,0,0,1,1.586.5v-.534a2.12,2.12,0,0,0-.718-1.763,3.729,3.729,0,0,0-2.322-.576,7.75,7.75,0,0,0-2.756.485,13.542,13.542,0,0,0-2.69,1.42l-1.837-3.942a13.822,13.822,0,0,1,3.724-1.687,15.4,15.4,0,0,1,4.193-.552,10.066,10.066,0,0,1,6.465,1.843,6.6,6.6,0,0,1,2.289,5.462V180a2.051,2.051,0,0,0,.267,1.222,1.286,1.286,0,0,0,.935.407v5.346q-.769.166-1.453.251a10.39,10.39,0,0,1-1.219.083,4.507,4.507,0,0,1-2.589-.618,2.877,2.877,0,0,1-1.152-1.82l-.134-.634a8.1,8.1,0,0,1-2.706,2.289,7.1,7.1,0,0,1-3.274.785,6.775,6.775,0,0,1-3.141-.722,5.556,5.556,0,0,1-2.2-1.986A5.211,5.211,0,0,1,469.35,181.761Zm10.289.374a2.681,2.681,0,0,0,.6-.553,1,1,0,0,0,.234-.616v-1.233a8.1,8.1,0,0,0-1.219-.316,6.827,6.827,0,0,0-1.219-.127,3.318,3.318,0,0,0-1.92.537,1.6,1.6,0,0,0-.785,1.358,1.32,1.32,0,0,0,.267.805,1.782,1.782,0,0,0,.734.569,2.644,2.644,0,0,0,1.07.206,4.372,4.372,0,0,0,1.186-.174A3.744,3.744,0,0,0,479.639,182.135Z" transform="translate(-438.823 -162.59)" fill="#fff"/>
      <path id="Path_24" data-name="Path 24" d="M605.379,166.474a9.122,9.122,0,0,1,3.768.674L605.5,172.3a12.979,12.979,0,0,0-3.341.4,4.072,4.072,0,0,0-2.238,1.337v10.423H593.57V167.124h5.813v3.107a7.492,7.492,0,0,1,2.561-2.645A5.72,5.72,0,0,1,605.379,166.474Z" transform="translate(-546.454 -160.077)" fill="#fff"/>
      <path id="Path_25" data-name="Path 25" d="M637.89,134.318a10.319,10.319,0,0,1,.986-4.583,7.931,7.931,0,0,1,2.723-3.186,6.966,6.966,0,0,1,3.975-1.167,6.445,6.445,0,0,1,3.141.785,5.262,5.262,0,0,1,2.171,2.155V118.6h6.347v17.372a2.146,2.146,0,0,0,.267,1.253,1.28,1.28,0,0,0,.935.418v5.346a13.931,13.931,0,0,1-2.672.334,4.652,4.652,0,0,1-2.539-.6,2.773,2.773,0,0,1-1.2-1.838l-.133-.634a5.473,5.473,0,0,1-2.438,2.338,7.492,7.492,0,0,1-3.274.734,8.286,8.286,0,0,1-3.324-.657,7.788,7.788,0,0,1-2.639-1.856,8.251,8.251,0,0,1-1.72-2.858A10.591,10.591,0,0,1,637.89,134.318Zm13.03,1.926v-3.015a4.281,4.281,0,0,0-.819-1.3,4.085,4.085,0,0,0-1.152-.883,2.906,2.906,0,0,0-2.589-.032,3.14,3.14,0,0,0-1.019.8,3.669,3.669,0,0,0-.668,1.187,4.361,4.361,0,0,0-.234,1.442,3.939,3.939,0,0,0,.251,1.444,3.155,3.155,0,0,0,.718,1.107,3.316,3.316,0,0,0,1.1.722,3.714,3.714,0,0,0,1.4.256,3.212,3.212,0,0,0,.868-.112,3.412,3.412,0,0,0,.768-.32,3.646,3.646,0,0,0,.718-.545A5.69,5.69,0,0,0,650.92,136.243Z" transform="translate(-584.856 -118.6)" fill="#fff"/>
      <path id="Path_26" data-name="Path 26" d="M814.776,146.4a11.918,11.918,0,0,1-4.393-.819,10.788,10.788,0,0,1-3.691-2.405,11.351,11.351,0,0,1-2.523-3.842,13.581,13.581,0,0,1-.919-5.161,11.452,11.452,0,0,1,.935-4.643,11.885,11.885,0,0,1,6.447-6.28,12.5,12.5,0,0,1,4.777-.9,12.182,12.182,0,0,1,5.813,1.386,9.047,9.047,0,0,1,3.875,3.791l-4.844,3.708a5.475,5.475,0,0,0-2.1-2.255,5.641,5.641,0,0,0-2.974-.852,4.857,4.857,0,0,0-2.138.467,5.169,5.169,0,0,0-1.687,1.3,5.836,5.836,0,0,0-1.1,1.988,7.925,7.925,0,0,0-.385,2.523,7.591,7.591,0,0,0,.4,2.539,5.9,5.9,0,0,0,1.119,1.955,4.984,4.984,0,0,0,1.72,1.27,5.4,5.4,0,0,0,2.238.451,6.188,6.188,0,0,0,3.007-.785,8.829,8.829,0,0,0,2.605-2.222v6.347A8.885,8.885,0,0,1,814.776,146.4Zm5.846-8.118h-4.376v-4.677H826v12.628h-5.379Z" transform="translate(-728.133 -121.849)" fill="#fff"/>
      <path id="Path_27" data-name="Path 27" d="M966.86,181.761a5.082,5.082,0,0,1,.968-3.07,6.429,6.429,0,0,1,2.69-2.085,9.679,9.679,0,0,1,3.925-.756,10.98,10.98,0,0,1,1.955.167,5.99,5.99,0,0,1,1.586.5v-.534a2.121,2.121,0,0,0-.718-1.763,3.729,3.729,0,0,0-2.322-.576,7.75,7.75,0,0,0-2.756.485,13.542,13.542,0,0,0-2.689,1.42l-1.838-3.942a13.822,13.822,0,0,1,3.724-1.687,15.4,15.4,0,0,1,4.193-.552,10.066,10.066,0,0,1,6.465,1.843,6.6,6.6,0,0,1,2.289,5.462V180a2.061,2.061,0,0,0,.267,1.222,1.286,1.286,0,0,0,.935.407v5.346q-.769.166-1.453.251a10.391,10.391,0,0,1-1.219.083,4.507,4.507,0,0,1-2.589-.618,2.878,2.878,0,0,1-1.153-1.82l-.133-.634a8.1,8.1,0,0,1-2.706,2.289,7.1,7.1,0,0,1-3.274.785,6.775,6.775,0,0,1-3.141-.722,5.556,5.556,0,0,1-2.2-1.986A5.212,5.212,0,0,1,966.86,181.761Zm10.289.374a2.68,2.68,0,0,0,.6-.553,1,1,0,0,0,.234-.616v-1.233a8.1,8.1,0,0,0-1.219-.316,6.827,6.827,0,0,0-1.219-.127,3.318,3.318,0,0,0-1.92.537,1.6,1.6,0,0,0-.785,1.358,1.32,1.32,0,0,0,.267.805,1.782,1.782,0,0,0,.734.569,2.644,2.644,0,0,0,1.07.206,4.371,4.371,0,0,0,1.186-.174A3.762,3.762,0,0,0,977.149,182.135Z" transform="translate(-869.895 -162.59)" fill="#fff"/>
      <path id="Path_28" data-name="Path 28" d="M1135.03,186.967h-6.347v-9.648a2.7,2.7,0,0,0-.518-1.842,1.631,1.631,0,0,0-1.253-.57,2.675,2.675,0,0,0-1.6.685,3.955,3.955,0,0,0-1.27,1.76v9.616h-6.347V177.32a2.7,2.7,0,0,0-.518-1.842,1.631,1.631,0,0,0-1.253-.57,2.723,2.723,0,0,0-1.6.664,3.836,3.836,0,0,0-1.27,1.707v9.69H1106.7v-17.34h5.713v2.623a5.939,5.939,0,0,1,2.572-2.151,9.35,9.35,0,0,1,3.875-.74,5.013,5.013,0,0,1,3.274.92,4.493,4.493,0,0,1,1.47,2.07,6.28,6.28,0,0,1,2.572-2.2,8.369,8.369,0,0,1,3.675-.788,5.348,5.348,0,0,1,2.772.624,4.1,4.1,0,0,1,1.553,1.609,6.625,6.625,0,0,1,.685,2.053,12.793,12.793,0,0,1,.167,1.955v11.366Z" transform="translate(-991.06 -162.581)" fill="#fff"/>
      <path id="Path_29" data-name="Path 29" d="M1328.48,187.31a11.194,11.194,0,0,1-4.109-.708,8.706,8.706,0,0,1-3.023-1.926,8.249,8.249,0,0,1-1.854-2.8,8.823,8.823,0,0,1-.634-3.324,9.62,9.62,0,0,1,1.1-4.576,8.413,8.413,0,0,1,3.241-3.347,11.711,11.711,0,0,1,10.558-.012,8.426,8.426,0,0,1,3.241,3.29,9.2,9.2,0,0,1,1.1,4.442,9.893,9.893,0,0,1-.051,1c-.033.341-.072.641-.117.9h-12.327a2.531,2.531,0,0,0,.518,1.444,2.6,2.6,0,0,0,1.136.809,4.043,4.043,0,0,0,1.42.254,4.244,4.244,0,0,0,1.955-.467,2.352,2.352,0,0,0,1.219-1.3l5.379,1.537a7.838,7.838,0,0,1-1.954,2.472,9.452,9.452,0,0,1-2.956,1.687A11.259,11.259,0,0,1,1328.48,187.31Zm-3.007-10.857h5.813a3.085,3.085,0,0,0-.485-1.381,2.642,2.642,0,0,0-1-.879,3.368,3.368,0,0,0-2.839,0,2.622,2.622,0,0,0-1,.879A3.063,3.063,0,0,0,1325.473,176.453Z" transform="translate(-1174.889 -162.59)" fill="#fff"/>
      <path id="Path_30" data-name="Path 30" d="M1483.128,141.229a5.133,5.133,0,0,1-1.152,3.475,6.745,6.745,0,0,1-3.09,1.971,13.671,13.671,0,0,1-4.276.634H1462.95V123.59h13.764a4.786,4.786,0,0,1,2.89.885,5.778,5.778,0,0,1,1.871,2.289,6.83,6.83,0,0,1,.652,2.907,6.471,6.471,0,0,1-.852,3.174,5.324,5.324,0,0,1-2.556,2.3,5.812,5.812,0,0,1,4.41,6.079Zm-13.664-12.093v3.642h4.443a2.356,2.356,0,0,0,.835-.151,1.38,1.38,0,0,0,.668-.552,2.046,2.046,0,0,0,.267-1.136,2.139,2.139,0,0,0-.218-1.052,1.4,1.4,0,0,0-.568-.568,1.677,1.677,0,0,0-.785-.184h-4.642Zm7.048,10.757a2.39,2.39,0,0,0-.218-1.052,1.882,1.882,0,0,0-.585-.718,1.44,1.44,0,0,0-.868-.267h-5.379v3.976h5.145a2,2,0,0,0,.968-.234,1.716,1.716,0,0,0,.685-.668A2.025,2.025,0,0,0,1476.512,139.893Z" transform="translate(-1299.737 -122.924)" fill="#fff"/>
      <path id="Path_31" data-name="Path 31" d="M1614.05,181.761a5.083,5.083,0,0,1,.968-3.07,6.437,6.437,0,0,1,2.689-2.085,9.681,9.681,0,0,1,3.926-.756,10.956,10.956,0,0,1,1.954.167,5.989,5.989,0,0,1,1.586.5v-.534a2.12,2.12,0,0,0-.718-1.763,3.729,3.729,0,0,0-2.322-.576,7.749,7.749,0,0,0-2.756.485,13.54,13.54,0,0,0-2.689,1.42l-1.838-3.942a13.821,13.821,0,0,1,3.724-1.687,15.4,15.4,0,0,1,4.193-.552,10.066,10.066,0,0,1,6.465,1.843,6.6,6.6,0,0,1,2.289,5.462V180a2.061,2.061,0,0,0,.267,1.222,1.286,1.286,0,0,0,.935.407v5.346q-.769.166-1.453.251a10.392,10.392,0,0,1-1.219.083,4.507,4.507,0,0,1-2.589-.618,2.877,2.877,0,0,1-1.153-1.82l-.133-.634a8.1,8.1,0,0,1-2.706,2.289,7.1,7.1,0,0,1-3.274.785,6.776,6.776,0,0,1-3.141-.722,5.556,5.556,0,0,1-2.2-1.986A5.21,5.21,0,0,1,1614.05,181.761Zm10.289.374a2.678,2.678,0,0,0,.6-.553.989.989,0,0,0,.234-.616v-1.233a8.093,8.093,0,0,0-1.219-.316,6.827,6.827,0,0,0-1.219-.127,3.318,3.318,0,0,0-1.92.537,1.6,1.6,0,0,0-.785,1.358,1.33,1.33,0,0,0,.267.805,1.783,1.783,0,0,0,.734.569,2.642,2.642,0,0,0,1.068.206,4.372,4.372,0,0,0,1.186-.174A3.753,3.753,0,0,0,1624.339,182.135Z" transform="translate(-1430.659 -162.59)" fill="#fff"/>
      <path id="Path_32" data-name="Path 32" d="M1765.816,172.866a12.978,12.978,0,0,0-3.341.4,4.072,4.072,0,0,0-2.238,1.337v10.423h-6.347V167.688h5.813V170.8a7.351,7.351,0,0,1,2.338-2.723,5.205,5.205,0,0,1,2.973-.952h.518a1.221,1.221,0,0,1,.285.033Z" transform="translate(-1551.824 -160.641)" fill="#fff"/>
    </g>
    <path id="Path_33" data-name="Path 33" d="M128.753,261.78l-1.323,5.265h3.607l1.3-5.265Z" transform="translate(-63.295 -124.06)" fill="#fff"/>
    <path id="Path_34" data-name="Path 34" d="M76.028,133.145V130H71.953l1.569-6.414H69.915L68.378,130H65.322l-.772,3.141h3.025l-1.068,4.576H62.5l.773-3.209h0l.329-1.366H63.6L64.372,130h0l1.6-6.414H62.364L60.794,130H55.949v3.141h4.077l-1.1,4.576H54.38v3.341h3.742l-1.537,6.247h3.608l1.5-6.247H74.458v-3.341H70.082l1.068-4.576Z" transform="translate(0 -4.324)" fill="#fff"/>
    <rect id="Rectangle_14" data-name="Rectangle 14" width="42.359" height="2.493" transform="translate(100.641 120.567)" fill="#fff"/>
    <rect id="Rectangle_15" data-name="Rectangle 15" width="59.986" height="2.493" transform="translate(179.43 120.567)" fill="#fff"/>
  </g>
</svg>
