<svg xmlns="http://www.w3.org/2000/svg" width="117.16" height="117.16" viewBox="0 0 117.16 117.16">
  <g id="Icon_ionic-ios-checkmark-circle-outline" data-name="Icon ionic-ios-checkmark-circle-outline" transform="translate(-14.063 -14.063)">
    <path id="Path_9" data-name="Path 9" d="M101.54,56.514l-4.771-5.3a.991.991,0,0,0-.759-.352h0a.952.952,0,0,0-.759.352L62.181,87.217,50.145,74.209a1,1,0,0,0-1.518,0L43.8,79.424a1.234,1.234,0,0,0,0,1.67L58.982,97.5a4.665,4.665,0,0,0,3.172,1.67A4.9,4.9,0,0,0,65.3,97.559h.027l36.242-39.375A1.329,1.329,0,0,0,101.54,56.514Z" transform="translate(0 -2.358)"/>
    <path id="Path_10" data-name="Path 10" d="M72.643,21.948A50.674,50.674,0,1,1,36.79,36.79,50.359,50.359,0,0,1,72.643,21.948m0-7.886a58.58,58.58,0,1,0,58.58,58.58,58.571,58.571,0,0,0-58.58-58.58Z"/>
  </g>
</svg>
