<svg xmlns="http://www.w3.org/2000/svg" xmlns:xlink="http://www.w3.org/1999/xlink" width="183.007" height="153.846" viewBox="0 0 183.007 153.846">
  <defs>
    <filter id="Path_11">
      <feOffset input="SourceAlpha"/>
      <feGaussianBlur stdDeviation="15" result="blur"/>
      <feFlood flood-color="#fff" flood-opacity="0.161" result="color"/>
      <feComposite operator="out" in="SourceGraphic" in2="blur"/>
      <feComposite operator="in" in="color"/>
      <feComposite operator="in" in2="SourceGraphic"/>
    </filter>
  </defs>
  <g data-type="innerShadowGroup">
    <path id="Path_11-2" data-name="Path 11" d="M263.063,258.932c19.067-.1,39.3-8.85,55.463,1.272,17.089,10.7,25.185,31.4,28.466,51.3a84.158,84.158,0,0,1-10.583,57.146c-10.153,16.857-26.532,28.741-45.09,35.287-18.393,6.487-37.709,4.889-56.742.63-22.212-4.97-48.063-7.826-60.53-26.87-12.668-19.351-7.57-45.077-1.107-67.284,5.841-20.07,16.985-39.273,35.135-49.641,16.42-9.379,36.078-1.742,54.988-1.839" transform="translate(-165.746 -254.831)" fill="#bf4040"/>
    <g transform="matrix(1, 0, 0, 1, 0, 0)" filter="url(#Path_11)">
      <path id="Path_11-3" data-name="Path 11" d="M263.063,258.932c19.067-.1,39.3-8.85,55.463,1.272,17.089,10.7,25.185,31.4,28.466,51.3a84.158,84.158,0,0,1-10.583,57.146c-10.153,16.857-26.532,28.741-45.09,35.287-18.393,6.487-37.709,4.889-56.742.63-22.212-4.97-48.063-7.826-60.53-26.87-12.668-19.351-7.57-45.077-1.107-67.284,5.841-20.07,16.985-39.273,35.135-49.641,16.42-9.379,36.078-1.742,54.988-1.839" transform="translate(-165.75 -254.83)" fill="#fff"/>
    </g>
    <path id="Path_11-4" data-name="Path 11" d="M263.063,258.932c19.067-.1,39.3-8.85,55.463,1.272,17.089,10.7,25.185,31.4,28.466,51.3a84.158,84.158,0,0,1-10.583,57.146c-10.153,16.857-26.532,28.741-45.09,35.287-18.393,6.487-37.709,4.889-56.742.63-22.212-4.97-48.063-7.826-60.53-26.87-12.668-19.351-7.57-45.077-1.107-67.284,5.841-20.07,16.985-39.273,35.135-49.641,16.42-9.379,36.078-1.742,54.988-1.839" transform="translate(-165.746 -254.831)" fill="none" stroke="#fff" stroke-width="1"/>
  </g>
</svg>
