<?xml version="1.0" encoding="utf-8"?>
<!-- Generator: Adobe Illustrator 26.1.0, SVG Export Plug-In . SVG Version: 6.00 Build 0)  -->
<svg version="1.1" id="Layer_1" xmlns="http://www.w3.org/2000/svg" xmlns:xlink="http://www.w3.org/1999/xlink" x="0px" y="0px"
	 viewBox="0 0 31.9 31.9" style="enable-background:new 0 0 31.9 31.9;" xml:space="preserve">
<style type="text/css">
	.st0{fill:#FFFFFF;}
</style>
<g id="profile" transform="translate(-1.5 -1.5)">
	<path class="st0" d="M17.4,7.3c-3.2,0-5.8,2.6-5.8,5.8s2.6,5.8,5.8,5.8s5.8-2.6,5.8-5.8S20.6,7.3,17.4,7.3z M20.3,13.1L20.3,13.1
		c0,1.6-1.3,2.9-2.9,2.9s-2.9-1.3-2.9-2.9s1.3-2.9,2.9-2.9C19,10.2,20.3,11.5,20.3,13.1C20.3,13.1,20.3,13.1,20.3,13.1z"/>
	<path class="st0" d="M17.4,1.5C8.4,1.5,1.1,9,1.5,18.2c0.4,8.1,7,14.8,15.2,15.2c9.1,0.4,16.7-6.9,16.7-15.9
		C33.4,8.6,26.2,1.5,17.4,1.5z M17.4,30.5c-3,0-5.9-1-8.2-2.9c3.2-4.6,9.5-5.7,14.1-2.5c0.9,0.7,1.8,1.5,2.4,2.4
		C23.4,29.4,20.5,30.5,17.4,30.5z M27.8,25.3c-0.7-0.9-1.5-1.7-2.4-2.3c-5.7-4.4-13.9-3.3-18.3,2.5c-1.8-2.3-2.8-5.1-2.8-8
		c0-4.7,2.5-9.2,7-11.5c3.9-2.1,8.6-2,12.4,0.1C30.8,10,32.5,19.1,27.8,25.3z"/>
</g>
</svg>
