<svg xmlns="http://www.w3.org/2000/svg" width="31.866" height="31.866" viewBox="0 0 31.866 31.866">
  <g id="profile" transform="translate(-1.5 -1.5)">
    <path id="Path_39" data-name="Path 39" d="M23.588,13.294A5.794,5.794,0,1,1,17.794,7.5,5.794,5.794,0,0,1,23.588,13.294Zm-2.9,0a2.9,2.9,0,1,1-2.9-2.9A2.9,2.9,0,0,1,20.691,13.294Z" transform="translate(-0.361 -0.206)" fill="#fff"/>
    <path id="Path_40" data-name="Path 40" d="M17.433,1.5A15.933,15.933,0,1,0,33.366,17.433,15.933,15.933,0,0,0,17.433,1.5ZM4.4,17.433A12.984,12.984,0,0,0,7.161,25.46,13.039,13.039,0,0,1,27.8,25.339,13.036,13.036,0,1,0,4.4,17.433ZM17.433,30.469a12.982,12.982,0,0,1-8.216-2.914,10.143,10.143,0,0,1,16.551-.1A12.984,12.984,0,0,1,17.433,30.469Z" fill="#fff"/>
  </g>
</svg>
